<?xml version="1.0" encoding="UTF-8" standalone="no"?>
<!DOCTYPE svg PUBLIC "-//W3C//DTD SVG 1.1//EN" "http://www.w3.org/Graphics/SVG/1.1/DTD/svg11.dtd">
<svg width="100%" height="100%" viewBox="0 0 53 94" version="1.1" xmlns="http://www.w3.org/2000/svg" xmlns:xlink="http://www.w3.org/1999/xlink" xml:space="preserve" xmlns:serif="http://www.serif.com/" style="fill-rule:evenodd;clip-rule:evenodd;stroke-linejoin:round;stroke-miterlimit:2;">
    <g transform="matrix(1,0,0,1,-502.819,-290.378)">
        <g transform="matrix(-0.707108,0.707062,0.707062,0.707108,513.55,341.3)">
            <path d="M13.15,10.6C12.317,8.3 11.25,6.067 9.95,3.9C6.217,4.8 2.8,6.867 -0.3,10.1C0.267,11 0.767,11.917 1.2,12.85C2.233,14.983 2.883,17.283 3.15,19.75C3.317,21.35 4.033,22.667 5.3,23.7C6.6,24.7 8.067,25.133 9.7,25C11.3,24.8 12.617,24.05 13.65,22.75C14.683,21.517 15.117,20.067 14.95,18.4C14.717,16.467 14.35,14.617 13.85,12.85C13.65,12.083 13.417,11.333 13.15,10.6Z" style="fill:rgb(191,121,88);fill-rule:nonzero;"/>
        </g>
        <g transform="matrix(-0.707108,0.707062,0.707062,0.707108,513.55,341.3)">
            <path d="M-0.2,-5C-1.833,-4.967 -3.233,-4.367 -4.4,-3.2C-5.533,-2 -6.067,-0.6 -6,1C-6,2.633 -5.433,4.017 -4.3,5.15C-2.7,6.683 -1.367,8.333 -0.3,10.1C2.8,6.867 6.217,4.8 9.95,3.9C8.317,1.333 6.333,-1.083 4,-3.35C2.833,-4.417 1.433,-4.967 -0.2,-5Z" style="fill:rgb(231,243,252);fill-rule:nonzero;"/>
        </g>
        <g transform="matrix(-0.707108,0.707062,0.707062,0.707108,513.55,341.3)">
            <path d="M12.4,4.8L10.35,1.2L-2.55,8.7L-0.55,12.25L12.4,4.8Z" style="fill:rgb(191,212,229);fill-rule:nonzero;"/>
        </g>
        <g transform="matrix(0.707108,0.707062,-0.707062,0.707108,546,341.3)">
            <path d="M13.15,10.6C12.317,8.3 11.25,6.067 9.95,3.9C6.217,4.8 2.8,6.867 -0.3,10.1C0.267,11 0.767,11.917 1.2,12.85C2.233,14.983 2.883,17.283 3.15,19.75C3.317,21.35 4.033,22.667 5.3,23.7C6.6,24.7 8.067,25.133 9.7,25C11.3,24.8 12.617,24.05 13.65,22.75C14.683,21.517 15.117,20.067 14.95,18.4C14.717,16.467 14.35,14.617 13.85,12.85C13.65,12.083 13.417,11.333 13.15,10.6Z" style="fill:rgb(191,121,88);fill-rule:nonzero;"/>
        </g>
        <g transform="matrix(0.707108,0.707062,-0.707062,0.707108,546,341.3)">
            <path d="M-0.2,-5C-1.833,-4.967 -3.233,-4.367 -4.4,-3.2C-5.533,-2 -6.067,-0.6 -6,1C-6,2.633 -5.433,4.017 -4.3,5.15C-2.7,6.683 -1.367,8.333 -0.3,10.1C2.8,6.867 6.217,4.8 9.95,3.9C8.317,1.333 6.333,-1.083 4,-3.35C2.833,-4.417 1.433,-4.967 -0.2,-5Z" style="fill:rgb(231,243,252);fill-rule:nonzero;"/>
        </g>
        <g transform="matrix(0.707108,0.707062,-0.707062,0.707108,546,341.3)">
            <path d="M12.4,4.8L10.35,1.2L-2.55,8.7L-0.55,12.25L12.4,4.8Z" style="fill:rgb(191,212,229);fill-rule:nonzero;"/>
        </g>
        <g transform="matrix(1,0,0,1,538,360.95)">
            <path d="M5.3,14L5.45,9L-6.45,9L-6.6,14L5.3,14Z" style="fill:rgb(76,78,170);fill-rule:nonzero;"/>
        </g>
        <g transform="matrix(1,0,0,1,538,360.95)">
            <path d="M11,20L5.25,14L-6.6,14L-6.85,20L11,20Z" style="fill:white;fill-rule:nonzero;"/>
        </g>
        <g transform="matrix(1,0,0,1,538,360.95)">
            <path d="M10.9,23L11,20L-6.85,20L-7,23L10.9,23Z" style="fill:rgb(238,161,96);fill-rule:nonzero;"/>
        </g>
        <g transform="matrix(1,0,0,1,538,360.95)">
            <path d="M5.9,-0.2C5.9,-1.8 5.267,-3.167 4,-4.3C2.767,-5.433 1.25,-6 -0.55,-6C-2.317,-6 -3.833,-5.433 -5.1,-4.3C-6.367,-3.167 -7,-1.8 -7,-0.2L-6.45,9L5.45,9L5.9,-0.2Z" style="fill:rgb(103,106,198);fill-rule:nonzero;"/>
        </g>
        <g transform="matrix(-1,0,0,1,522,360.95)">
            <path d="M5.3,14L5.45,9L-6.45,9L-6.6,14L5.3,14Z" style="fill:rgb(76,78,170);fill-rule:nonzero;"/>
        </g>
        <g transform="matrix(-1,0,0,1,522,360.95)">
            <path d="M11,20L5.25,14L-6.6,14L-6.85,20L11,20Z" style="fill:white;fill-rule:nonzero;"/>
        </g>
        <g transform="matrix(-1,0,0,1,522,360.95)">
            <path d="M10.9,23L11,20L-6.85,20L-7,23L10.9,23Z" style="fill:rgb(238,161,96);fill-rule:nonzero;"/>
        </g>
        <g transform="matrix(-1,0,0,1,522,360.95)">
            <path d="M5.9,-0.2C5.9,-1.8 5.267,-3.167 4,-4.3C2.767,-5.433 1.25,-6 -0.55,-6C-2.317,-6 -3.833,-5.433 -5.1,-4.3C-6.367,-3.167 -7,-1.8 -7,-0.2L-6.45,9L5.45,9L5.9,-0.2Z" style="fill:rgb(103,106,198);fill-rule:nonzero;"/>
        </g>
        <g transform="matrix(1,0,0,1,530,358.05)">
            <rect x="-15.45" y="-2.15" width="30.05" height="4.95" style="fill:rgb(191,212,229);fill-rule:nonzero;"/>
        </g>
        <g transform="matrix(1,0,0,1,530,358.05)">
            <path d="M13.1,8C14.033,6.733 14.533,5 14.6,2.8L-15.45,2.8C-15.383,5 -14.883,6.733 -13.95,8L13.1,8Z" style="fill:rgb(103,106,198);fill-rule:nonzero;"/>
        </g>
        <g transform="matrix(1,0,0,1,530,358.05)">
            <path d="M17.8,-15.8C18.5,-19.4 17.633,-21.133 15.2,-21L-16.1,-21C-18.533,-21.133 -19.4,-19.4 -18.7,-15.8L-15.45,-2.15L14.6,-2.15L17.8,-15.8Z" style="fill:rgb(231,243,252);fill-rule:nonzero;"/>
        </g>
        <g transform="matrix(1,0,0,1,530,358.05)">
            <path d="M7.6,-28.45C5.5,-30.15 2.983,-31 0.05,-31C-2.883,-31 -5.4,-30.15 -7.5,-28.45C-9.567,-26.65 -10.6,-24.5 -10.6,-22C-10.6,-21.833 -10.583,-21.667 -10.55,-21.5C-10.45,-19.233 -9.433,-17.3 -7.5,-15.7C-5.4,-13.9 -2.883,-13 0.05,-13C2.983,-13 5.5,-13.9 7.6,-15.7C9.533,-17.3 10.55,-19.233 10.65,-21.5C10.683,-21.667 10.7,-21.833 10.7,-22C10.7,-24.5 9.667,-26.65 7.6,-28.45Z" style="fill:rgb(168,96,63);fill-rule:nonzero;"/>
        </g>
        <g transform="matrix(1,0,0,1,530,358.05)">
            <path d="M-3.15,-1.95L-17.25,-0.7C-16.983,0.933 -16.7,2.667 -16.4,4.5L-3.95,3C-3.617,1.467 -3.35,-0.183 -3.15,-1.95Z" style="fill:rgb(215,139,73);fill-rule:nonzero;"/>
        </g>
        <g transform="matrix(1,0,0,1,530,358.05)">
            <path d="M-3.15,-1.95C-2.917,-4.283 -2.833,-6.8 -2.9,-9.5C-7.4,-12.333 -10.967,-16.633 -13.6,-22.4L-18.15,-23.25C-19.517,-20.783 -19.217,-13.267 -17.25,-0.7L-3.15,-1.95Z" style="fill:rgb(238,161,96);fill-rule:nonzero;"/>
        </g>
        <g transform="matrix(1,0,0,1,530,358.05)">
            <path d="M16.85,-0.7L2.75,-1.95C2.95,-0.183 3.217,1.467 3.55,3L16,4.5C16.3,2.667 16.583,0.933 16.85,-0.7Z" style="fill:rgb(215,139,73);fill-rule:nonzero;"/>
        </g>
        <g transform="matrix(1,0,0,1,530,358.05)">
            <path d="M2.5,-9.5C2.433,-6.8 2.517,-4.283 2.75,-1.95L16.85,-0.7C18.817,-13.267 19.117,-20.783 17.75,-23.25L13.2,-22.4C10.567,-16.633 7,-12.333 2.5,-9.5Z" style="fill:rgb(238,161,96);fill-rule:nonzero;"/>
        </g>
        <g transform="matrix(1,0,0,1,530,358.05)">
            <path d="M-13.05,-22L-15.1,-18.4L-2,-10.8L0.05,-14.45L-13.05,-22M13.15,-22L0.05,-14.45L2.1,-10.8L15.2,-18.4L13.15,-22Z" style="fill:rgb(191,212,229);fill-rule:nonzero;"/>
        </g>
        <g transform="matrix(1,0,0,1,530,358.05)">
            <path d="M2.1,-10.8L0.05,-14.45L-2,-10.8L2.1,-10.8Z" style="fill:rgb(231,243,252);fill-rule:nonzero;"/>
        </g>
        <g transform="matrix(1.50739,0,0,1,530.4,338.1)">
            <path d="M9.45,-9.55C6.85,-12.15 3.7,-13.45 0,-13.45C-3.7,-13.45 -6.883,-12.15 -9.55,-9.55C-12.15,-6.883 -13.45,-3.7 -13.45,0C-13.45,3.7 -12.15,6.85 -9.55,9.45C-6.883,12.117 -3.7,13.45 0,13.45C3.7,13.45 6.85,12.117 9.45,9.45C12.117,6.85 13.45,3.7 13.45,0C13.45,-3.7 12.117,-6.883 9.45,-9.55Z" style="fill:url(#_Radial1);fill-rule:nonzero;"/>
        </g>
        <g transform="matrix(0.995865,-0.0908508,0.0908508,0.995865,530.25,330.7)">
            <path d="M12.65,-35.05L9.75,-39.6C0.017,-40.367 -9.1,-40.067 -17.6,-38.7C-22.367,-38.033 -24.533,-35.767 -24.1,-31.9L-23.9,-30.2C-23.267,-32.567 -21.15,-34 -17.55,-34.5C-9.05,-35.833 0.067,-36.117 9.8,-35.35L12.65,-35.05M23.15,-30.65L23.3,-31.9C23.767,-35.667 21.95,-37.933 17.85,-38.7L13.3,-34.95L17.9,-34.5C20.767,-33.967 22.517,-32.683 23.15,-30.65Z" style="fill:rgb(69,74,81);fill-rule:nonzero;"/>
        </g>
        <g transform="matrix(0.995865,-0.0908508,0.0908508,0.995865,530.25,330.7)">
            <path d="M17.9,-34.5L13.3,-34.95L12.9,-34.65L12.65,-35.05L9.8,-35.35C0.067,-36.117 -9.05,-35.833 -17.55,-34.5C-21.15,-34 -23.267,-32.567 -23.9,-30.2L-21.65,-10.8C-21.283,-7.9 -19.383,-6.45 -15.95,-6.45L15.15,-6.45C18.617,-6.45 20.517,-7.9 20.85,-10.8L23.15,-30.65C22.517,-32.683 20.767,-33.967 17.9,-34.5Z" style="fill:rgb(60,62,65);fill-rule:nonzero;"/>
        </g>
        <g transform="matrix(0.995865,-0.0908508,0.0908508,0.995865,530.25,330.7)">
            <path d="M-24.65,-11.25C-26.217,-9.683 -27,-7.783 -27,-5.55C-27,-3.317 -26.217,-1.417 -24.65,0.15C-23.05,1.783 -21.167,2.6 -19,2.6C-16.8,2.6 -14.9,1.783 -13.3,0.15C-11.767,-1.417 -11,-3.317 -11,-5.55C-11,-7.783 -11.767,-9.683 -13.3,-11.25C-14.9,-12.883 -16.8,-13.7 -19,-13.7C-21.167,-13.7 -23.05,-12.883 -24.65,-11.25M-22.35,-2.1C-23.283,-3.033 -23.75,-4.183 -23.75,-5.55C-23.75,-6.85 -23.283,-8 -22.35,-9C-21.417,-9.933 -20.3,-10.4 -19,-10.4C-17.633,-10.4 -16.483,-9.933 -15.55,-9C-14.617,-8 -14.15,-6.85 -14.15,-5.55C-14.15,-4.183 -14.617,-3.033 -15.55,-2.1C-16.483,-1.133 -17.633,-0.65 -19,-0.65C-20.3,-0.65 -21.417,-1.133 -22.35,-2.1M18,-13.7C15.833,-13.7 13.95,-12.883 12.35,-11.25C10.783,-9.683 10,-7.783 10,-5.55C10,-3.317 10.783,-1.417 12.35,0.15C13.95,1.783 15.833,2.6 18,2.6C20.2,2.6 22.1,1.783 23.7,0.15C25.233,-1.417 26,-3.317 26,-5.55C26,-7.783 25.233,-9.683 23.7,-11.25C22.1,-12.883 20.2,-13.7 18,-13.7M18,-0.65C16.7,-0.65 15.583,-1.133 14.65,-2.1C13.683,-3.033 13.2,-4.183 13.2,-5.55C13.2,-6.85 13.683,-8 14.65,-9C15.583,-9.933 16.7,-10.4 18,-10.4C19.333,-10.4 20.483,-9.933 21.45,-9C22.383,-8 22.85,-6.85 22.85,-5.55C22.85,-4.183 22.383,-3.033 21.45,-2.1C20.483,-1.133 19.333,-0.65 18,-0.65Z" style="fill:rgb(191,121,88);fill-rule:nonzero;"/>
        </g>
        <g transform="matrix(0.995865,-0.0908508,0.0908508,0.995865,530.25,330.7)">
            <path d="M-23.75,-5.55C-23.75,-4.183 -23.283,-3.033 -22.35,-2.1C-21.417,-1.133 -20.3,-0.65 -19,-0.65C-17.633,-0.65 -16.483,-1.133 -15.55,-2.1C-14.617,-3.033 -14.15,-4.183 -14.15,-5.55C-14.15,-6.85 -14.617,-8 -15.55,-9C-16.483,-9.933 -17.633,-10.4 -19,-10.4C-20.3,-10.4 -21.417,-9.933 -22.35,-9C-23.283,-8 -23.75,-6.85 -23.75,-5.55M14.65,-2.1C15.583,-1.133 16.7,-0.65 18,-0.65C19.333,-0.65 20.483,-1.133 21.45,-2.1C22.383,-3.033 22.85,-4.183 22.85,-5.55C22.85,-6.85 22.383,-8 21.45,-9C20.483,-9.933 19.333,-10.4 18,-10.4C16.7,-10.4 15.583,-9.933 14.65,-9C13.683,-8 13.2,-6.85 13.2,-5.55C13.2,-4.183 13.683,-3.033 14.65,-2.1Z" style="fill:rgb(168,96,63);fill-rule:nonzero;"/>
        </g>
        <g transform="matrix(0.995865,-0.0908508,0.0908508,0.995865,530.25,330.7)">
            <path d="M11.7,8C15.3,7.533 17.333,5.6 17.8,2.2L20.45,-23.8L-21.4,-23.8L-18.2,8L11.7,8Z" style="fill:rgb(191,121,88);fill-rule:nonzero;"/>
        </g>
        <g transform="matrix(0.995865,-0.0908508,0.0908508,0.995865,530.25,330.7)">
            <path d="M-12.95,-8.15C-12.95,-6.983 -12.583,-5.983 -11.85,-5.15C-11.05,-4.25 -10.05,-3.8 -8.85,-3.8C-7.717,-3.8 -6.767,-4.25 -6,-5.15C-5.233,-5.983 -4.85,-6.983 -4.85,-8.15C-4.85,-9.317 -5.233,-10.317 -6,-11.15C-6.767,-12.017 -7.717,-12.45 -8.85,-12.45C-10.05,-12.45 -11.05,-12.017 -11.85,-11.15C-12.583,-10.317 -12.95,-9.317 -12.95,-8.15M-10.45,-8L-10.45,-8.25C-10.417,-8.95 -10.183,-9.55 -9.75,-10.05C-9.283,-10.583 -8.717,-10.85 -8.05,-10.85C-7.35,-10.85 -6.767,-10.583 -6.3,-10.05C-5.867,-9.55 -5.633,-8.95 -5.6,-8.25L-5.6,-8C-5.633,-7.333 -5.867,-6.75 -6.3,-6.25C-6.767,-5.717 -7.35,-5.45 -8.05,-5.45C-8.717,-5.45 -9.283,-5.717 -9.75,-6.25C-10.183,-6.75 -10.417,-7.333 -10.45,-8M5.1,-5.15C5.933,-4.25 6.933,-3.8 8.1,-3.8C9.267,-3.8 10.2,-4.25 10.9,-5.15C11.733,-5.983 12.15,-6.983 12.15,-8.15C12.15,-9.317 11.733,-10.317 10.9,-11.15C10.2,-12.017 9.267,-12.45 8.1,-12.45C6.933,-12.45 5.933,-12.017 5.1,-11.15C4.367,-10.317 4,-9.317 4,-8.15C4,-6.983 4.367,-5.983 5.1,-5.15M8.65,-10.05C9.117,-9.55 9.367,-8.95 9.4,-8.25L9.4,-8C9.367,-7.333 9.117,-6.75 8.65,-6.25C8.217,-5.717 7.667,-5.45 7,-5.45C6.333,-5.45 5.733,-5.717 5.2,-6.25C4.8,-6.75 4.583,-7.333 4.55,-8L4.55,-8.35C4.583,-8.983 4.8,-9.55 5.2,-10.05C5.733,-10.583 6.333,-10.85 7,-10.85C7.667,-10.85 8.217,-10.583 8.65,-10.05Z" style="fill:white;fill-rule:nonzero;"/>
        </g>
        <g transform="matrix(0.995865,-0.0908508,0.0908508,0.995865,530.25,330.7)">
            <path d="M-10.45,-8.25L-10.45,-8C-10.417,-7.333 -10.183,-6.75 -9.75,-6.25C-9.283,-5.717 -8.717,-5.45 -8.05,-5.45C-7.35,-5.45 -6.767,-5.717 -6.3,-6.25C-5.867,-6.75 -5.633,-7.333 -5.6,-8L-5.6,-8.25C-5.633,-8.95 -5.867,-9.55 -6.3,-10.05C-6.767,-10.583 -7.35,-10.85 -8.05,-10.85C-8.717,-10.85 -9.283,-10.583 -9.75,-10.05C-10.183,-9.55 -10.417,-8.95 -10.45,-8.25M9.4,-8.25C9.367,-8.95 9.117,-9.55 8.65,-10.05C8.217,-10.583 7.667,-10.85 7,-10.85C6.333,-10.85 5.733,-10.583 5.2,-10.05C4.8,-9.55 4.583,-8.983 4.55,-8.35L4.55,-8C4.583,-7.333 4.8,-6.75 5.2,-6.25C5.733,-5.717 6.333,-5.45 7,-5.45C7.667,-5.45 8.217,-5.717 8.65,-6.25C9.117,-6.75 9.367,-7.333 9.4,-8L9.4,-8.25Z" style="fill:rgb(60,62,65);fill-rule:nonzero;"/>
        </g>
        <g transform="matrix(0.995865,-0.0908508,0.0908508,0.995865,530.25,330.7)">
            <path d="M-14.9,-15.4L-14.6,-12.45L-4,-13.65L-4.3,-16.55L-14.9,-15.4M3.15,-18.65L2.9,-15.75L13.65,-14.9L13.85,-17.75L3.15,-18.65Z" style="fill:rgb(60,62,65);fill-rule:nonzero;"/>
        </g>
        <g transform="matrix(0.995865,-0.0908508,0.0908508,0.995865,530.25,330.7)">
            <path d="M-0.55,-1.1C-1.45,-1.1 -2.217,-0.8 -2.85,-0.2C-3.45,0.433 -3.75,1.2 -3.75,2.1C-3.75,3 -3.45,3.75 -2.85,4.35C-2.217,4.983 -1.45,5.3 -0.55,5.3C0.35,5.3 1.1,4.983 1.7,4.35C2.333,3.75 2.65,3 2.65,2.1C2.65,1.2 2.333,0.433 1.7,-0.2C1.1,-0.8 0.35,-1.1 -0.55,-1.1Z" style="fill:rgb(168,96,63);fill-rule:nonzero;"/>
        </g>
        <g transform="matrix(0.995865,-0.0908508,0.0908508,0.995865,530.25,330.7)">
            <path d="M-0.7,-4.3C-3.067,-4.3 -5.067,-3.817 -6.7,-2.85C-8.233,-1.983 -9.1,-0.95 -9.3,0.25C-9.367,0.417 -9.367,0.6 -9.3,0.8C-9.233,0.967 -9.133,1.117 -9,1.25C-8.867,1.383 -8.7,1.467 -8.5,1.5C-5.633,1.933 -2.933,1.6 -0.4,0.5C2.1,1.6 4.8,1.933 7.7,1.5C7.9,1.467 8.067,1.383 8.2,1.25C8.333,1.117 8.433,0.967 8.5,0.8C8.567,0.6 8.583,0.417 8.55,0.25C8.317,-0.95 7.433,-1.983 5.9,-2.85C4.233,-3.817 2.233,-4.3 -0.1,-4.3L-0.7,-4.3Z" style="fill:rgb(60,62,65);fill-rule:nonzero;"/>
        </g>
        <g transform="matrix(0.995865,-0.0908508,0.0908508,0.995865,530.25,330.7)">
            <path d="M2.1,-3.4C2.767,-3.867 3.1,-4.417 3.1,-5.05C3.1,-5.65 2.767,-6.2 2.1,-6.7C1.433,-7.133 0.617,-7.35 -0.35,-7.35C-1.283,-7.35 -2.083,-7.133 -2.75,-6.7C-3.417,-6.2 -3.75,-5.65 -3.75,-5.05C-3.75,-4.417 -3.417,-3.867 -2.75,-3.4C-2.083,-2.9 -1.283,-2.65 -0.35,-2.65C0.617,-2.65 1.433,-2.9 2.1,-3.4Z" style="fill:rgb(149,84,53);fill-rule:nonzero;"/>
        </g>
        <g transform="matrix(0.995865,-0.0908508,0.0908508,0.995865,530.25,330.7)">
            <path d="M-20.6,-23.3L-20.65,-23.3C-21.317,-23.2 -21.867,-22.867 -22.3,-22.3C-22.733,-21.8 -22.9,-21.217 -22.8,-20.55L-20.9,-4.55C-20.833,-3.917 -20.533,-3.367 -20,-2.9C-19.467,-2.5 -18.867,-2.35 -18.2,-2.45L-18.15,-2.45C-17.483,-2.517 -16.95,-2.817 -16.55,-3.35C-16.15,-3.883 -15.983,-4.5 -16.05,-5.2L-17.95,-21.1C-18.05,-21.8 -18.367,-22.35 -18.9,-22.75C-19.4,-23.15 -19.967,-23.333 -20.6,-23.3M17.9,-22.75C17.4,-22.35 17.1,-21.8 17,-21.1L15.1,-5.2C15.033,-4.5 15.2,-3.883 15.6,-3.35C16,-2.817 16.533,-2.517 17.2,-2.45L17.25,-2.45C17.883,-2.35 18.467,-2.5 19,-2.9C19.567,-3.367 19.883,-3.917 19.95,-4.55L21.85,-20.55C21.95,-21.217 21.783,-21.8 21.35,-22.3C20.917,-22.867 20.367,-23.2 19.7,-23.3L19.65,-23.3C18.983,-23.333 18.4,-23.15 17.9,-22.75Z" style="fill:rgb(60,62,65);fill-rule:nonzero;"/>
        </g>
        <g transform="matrix(0.995865,-0.0908508,0.0908508,0.995865,530.25,330.7)">
            <path d="M14.65,-19.9C18.917,-21.267 21.05,-22.85 21.05,-24.65C21.05,-26.417 18.917,-27.867 14.65,-29C10.45,-30.133 5.333,-30.617 -0.7,-30.45C-6.667,-30.25 -11.783,-29.467 -16.05,-28.1C-20.283,-26.7 -22.4,-25.117 -22.4,-23.35C-22.4,-21.55 -20.283,-20.1 -16.05,-19C-11.783,-17.833 -6.667,-17.35 -0.7,-17.55C5.333,-17.717 10.45,-18.5 14.65,-19.9Z" style="fill:rgb(60,62,65);fill-rule:nonzero;"/>
        </g>
    </g>
    <defs>
        <radialGradient id="_Radial1" cx="0" cy="0" r="1" gradientUnits="userSpaceOnUse" gradientTransform="matrix(13.5875,0,0,13.5875,0,0)"><stop offset="0" style="stop-color:black;stop-opacity:0.3"/><stop offset="1" style="stop-color:black;stop-opacity:0"/></radialGradient>
    </defs>
</svg>
