<?xml version="1.0" encoding="UTF-8" standalone="no"?>
<!DOCTYPE svg PUBLIC "-//W3C//DTD SVG 1.1//EN" "http://www.w3.org/Graphics/SVG/1.1/DTD/svg11.dtd">
<svg width="100%" height="100%" viewBox="0 0 59 85" version="1.1" xmlns="http://www.w3.org/2000/svg" xmlns:xlink="http://www.w3.org/1999/xlink" xml:space="preserve" xmlns:serif="http://www.serif.com/" style="fill-rule:evenodd;clip-rule:evenodd;stroke-linejoin:round;stroke-miterlimit:2;">
    <g transform="matrix(1,0,0,1,-305.699,-427.027)">
        <g transform="matrix(1,0,0.16304,1,344.25,489)">
            <g>
                <g id="leg_0_Layer0_0_FILL">
                    <path d="M11,20L5.25,14L-0.55,14L-0.55,9.65C-0.55,8.817 -0.85,8.1 -1.45,7.5C-2.05,6.9 -2.767,6.6 -3.6,6.6L-3.65,6.6C-4.483,6.6 -5.2,6.9 -5.8,7.5C-6.1,7.8 -6.333,8.133 -6.5,8.5C-6.633,8.867 -6.7,9.25 -6.7,9.65L-7,23L10.9,23L11,20M-3.6,8.35C-3.2,8.35 -2.85,8.5 -2.55,8.8C-2.25,9.1 -2.1,9.45 -2.1,9.85C-2.1,10.25 -2.25,10.6 -2.55,10.9C-2.85,11.2 -3.2,11.35 -3.6,11.35C-4,11.35 -4.35,11.2 -4.65,10.9C-4.95,10.6 -5.1,10.25 -5.1,9.85C-5.1,9.45 -4.95,9.1 -4.65,8.8C-4.35,8.5 -4,8.35 -3.6,8.35Z" style="fill:rgb(51,78,99);fill-rule:nonzero;"/>
                    <path d="M-2.55,8.8C-2.85,8.5 -3.2,8.35 -3.6,8.35C-4,8.35 -4.35,8.5 -4.65,8.8C-4.95,9.1 -5.1,9.45 -5.1,9.85C-5.1,10.25 -4.95,10.6 -4.65,10.9C-4.35,11.2 -4,11.35 -3.6,11.35C-3.2,11.35 -2.85,11.2 -2.55,10.9C-2.25,10.6 -2.1,10.25 -2.1,9.85C-2.1,9.45 -2.25,9.1 -2.55,8.8M5.9,-0.2C5.9,-1.8 5.267,-3.167 4,-4.3C2.767,-5.433 1.25,-6 -0.55,-6C-2.317,-6 -3.833,-5.433 -5.1,-4.3C-6.367,-3.167 -7,-1.8 -7,-0.2L-6.5,8.5C-6.333,8.133 -6.1,7.8 -5.8,7.5C-5.2,6.9 -4.483,6.6 -3.65,6.6L-3.6,6.6C-2.767,6.6 -2.05,6.9 -1.45,7.5C-0.85,8.1 -0.55,8.817 -0.55,9.65L-0.55,14L5.3,14L5.9,-0.2Z" style="fill:rgb(71,124,166);fill-rule:nonzero;"/>
                </g>
            </g>
        </g>
        <g transform="matrix(-1,0,-0.108688,1,327.75,489)">
            <g>
                <g id="leg_0_Layer0_0_FILL1" serif:id="leg_0_Layer0_0_FILL">
                    <path d="M11,20L5.25,14L-0.55,14L-0.55,9.65C-0.55,8.817 -0.85,8.1 -1.45,7.5C-2.05,6.9 -2.767,6.6 -3.6,6.6L-3.65,6.6C-4.483,6.6 -5.2,6.9 -5.8,7.5C-6.1,7.8 -6.333,8.133 -6.5,8.5C-6.633,8.867 -6.7,9.25 -6.7,9.65L-7,23L10.9,23L11,20M-3.6,8.35C-3.2,8.35 -2.85,8.5 -2.55,8.8C-2.25,9.1 -2.1,9.45 -2.1,9.85C-2.1,10.25 -2.25,10.6 -2.55,10.9C-2.85,11.2 -3.2,11.35 -3.6,11.35C-4,11.35 -4.35,11.2 -4.65,10.9C-4.95,10.6 -5.1,10.25 -5.1,9.85C-5.1,9.45 -4.95,9.1 -4.65,8.8C-4.35,8.5 -4,8.35 -3.6,8.35Z" style="fill:rgb(51,78,99);fill-rule:nonzero;"/>
                    <path d="M-2.55,8.8C-2.85,8.5 -3.2,8.35 -3.6,8.35C-4,8.35 -4.35,8.5 -4.65,8.8C-4.95,9.1 -5.1,9.45 -5.1,9.85C-5.1,10.25 -4.95,10.6 -4.65,10.9C-4.35,11.2 -4,11.35 -3.6,11.35C-3.2,11.35 -2.85,11.2 -2.55,10.9C-2.25,10.6 -2.1,10.25 -2.1,9.85C-2.1,9.45 -2.25,9.1 -2.55,8.8M5.9,-0.2C5.9,-1.8 5.267,-3.167 4,-4.3C2.767,-5.433 1.25,-6 -0.55,-6C-2.317,-6 -3.833,-5.433 -5.1,-4.3C-6.367,-3.167 -7,-1.8 -7,-0.2L-6.5,8.5C-6.333,8.133 -6.1,7.8 -5.8,7.5C-5.2,6.9 -4.483,6.6 -3.65,6.6L-3.6,6.6C-2.767,6.6 -2.05,6.9 -1.45,7.5C-0.85,8.1 -0.55,8.817 -0.55,9.65L-0.55,14L5.3,14L5.9,-0.2Z" style="fill:rgb(71,124,166);fill-rule:nonzero;"/>
                </g>
            </g>
        </g>
        <g transform="matrix(-1,0,0,1,320.5,470.8)">
            <g>
                <g id="arm_0_Layer0_0_FILL">
                    <path d="M6.4,14.7C5.528,14.7 4.711,14.533 3.95,14.2C4.445,16.073 4.728,18.073 4.8,20.2C4.833,21.267 5.283,22.183 6.15,22.95C6.95,23.683 7.917,24.033 9.05,24C10.183,23.967 11.15,23.55 11.95,22.75C12.683,21.917 13.033,20.967 13,19.9C12.885,16.866 12.452,14.033 11.7,11.4C11.432,12.016 11.032,12.583 10.5,13.1C9.367,14.167 8,14.7 6.4,14.7M6.4,3.45C7.088,3.45 7.722,3.55 8.3,3.75C6.362,0.684 3.795,-1.966 0.6,-4.2C-0.333,-4.867 -1.367,-5.117 -2.5,-4.95C-3.633,-4.783 -4.517,-4.267 -5.15,-3.4C-5.85,-2.533 -6.117,-1.55 -5.95,-0.45C-5.75,0.617 -5.2,1.483 -4.3,2.15C-2.236,3.633 -0.519,5.349 0.85,7.3C1.118,6.498 1.585,5.765 2.25,5.1C3.417,4 4.8,3.45 6.4,3.45M5.05,7.1C4.917,7.233 4.8,7.383 4.7,7.55C4.4,7.983 4.25,8.483 4.25,9.05C4.25,9.817 4.517,10.467 5.05,11C5.617,11.533 6.3,11.8 7.1,11.8C7.7,11.8 8.233,11.667 8.7,11.4C8.833,11.267 8.967,11.133 9.1,11C9.367,10.767 9.567,10.55 9.7,10.35C9.9,9.95 10,9.517 10,9.05C10,8.283 9.7,7.633 9.1,7.1C8.567,6.567 7.9,6.3 7.1,6.3C6.6,6.3 6.167,6.4 5.8,6.6C5.533,6.733 5.283,6.9 5.05,7.1Z" style="fill:rgb(71,124,166);fill-rule:nonzero;"/>
                    <path d="M11.7,11.4C12.067,10.701 12.25,9.934 12.25,9.1C12.25,7.567 11.667,6.233 10.5,5.1C9.854,4.473 9.121,4.023 8.3,3.75C7.722,3.55 7.088,3.45 6.4,3.45C4.8,3.45 3.417,4 2.25,5.1C1.585,5.765 1.118,6.498 0.85,7.3C0.65,7.866 0.55,8.466 0.55,9.1C0.55,10.633 1.117,11.967 2.25,13.1C2.781,13.585 3.348,13.952 3.95,14.2C4.711,14.533 5.528,14.7 6.4,14.7C8,14.7 9.367,14.167 10.5,13.1C11.032,12.583 11.432,12.016 11.7,11.4M4.7,7.55C4.8,7.383 4.917,7.233 5.05,7.1C5.283,6.9 5.533,6.733 5.8,6.6C6.167,6.4 6.6,6.3 7.1,6.3C7.9,6.3 8.567,6.567 9.1,7.1C9.7,7.633 10,8.283 10,9.05C10,9.517 9.9,9.95 9.7,10.35C9.567,10.55 9.367,10.767 9.1,11C8.967,11.133 8.833,11.267 8.7,11.4C8.233,11.667 7.7,11.8 7.1,11.8C6.3,11.8 5.617,11.533 5.05,11C4.517,10.467 4.25,9.817 4.25,9.05C4.25,8.483 4.4,7.983 4.7,7.55Z" style="fill:rgb(51,78,99);fill-rule:nonzero;"/>
                </g>
            </g>
        </g>
        <g transform="matrix(0.996597,-0.0824127,0.0824127,0.996597,335.75,487.75)">
            <g>
                <g id="body_0_Layer0_0_FILL">
                    <path d="M-12.95,-14.9C-11.65,-16.167 -11,-17.7 -11,-19.5C-11,-21.3 -11.65,-22.833 -12.95,-24.1C-14.217,-25.367 -15.75,-26 -17.55,-26C-19.35,-26 -20.867,-25.367 -22.1,-24.1C-23.367,-22.833 -24,-21.3 -24,-19.5C-24,-17.7 -23.367,-16.167 -22.1,-14.9C-20.867,-13.633 -19.35,-13 -17.55,-13C-15.75,-13 -14.217,-13.633 -12.95,-14.9M21.1,-14.9C22.367,-16.167 23,-17.7 23,-19.5C23,-21.3 22.367,-22.833 21.1,-24.1C19.833,-25.367 18.3,-26 16.5,-26C14.7,-26 13.183,-25.367 11.95,-24.1C10.65,-22.833 10,-21.3 10,-19.5C10,-17.7 10.65,-16.167 11.95,-14.9C13.183,-13.633 14.7,-13 16.5,-13C18.3,-13 19.833,-13.633 21.1,-14.9Z" style="fill:rgb(51,78,99);fill-rule:nonzero;"/>
                </g>
            </g>
            <g>
                <g id="body_0_Layer0_1_FILL">
                    <path d="M12.9,8C13.833,6.7 14.333,4.95 14.4,2.75L-15.5,2.75C-15.433,4.95 -14.933,6.7 -14,8L12.9,8Z" style="fill:rgb(83,147,197);fill-rule:nonzero;"/>
                    <path d="M7.75,-2.25C8.65,-3.717 9.1,-5.383 9.1,-7.25C9.1,-9.917 8.167,-12.2 6.3,-14.1C4.4,-16 2.117,-16.95 -0.55,-16.95C-3.217,-16.95 -5.5,-16 -7.4,-14.1C-9.3,-12.2 -10.25,-9.917 -10.25,-7.25C-10.25,-5.383 -9.783,-3.717 -8.85,-2.25L-15.5,-2.25L-15.5,2.75L14.4,2.75L14.4,-2.25L7.75,-2.25M4.5,-8.8L2.85,-3.55C2.817,-3.417 2.733,-3.3 2.6,-3.2C2.467,-3.1 2.317,-3.05 2.15,-3.05L-3.1,-3.05C-3.233,-3.05 -3.367,-3.1 -3.5,-3.2C-3.667,-3.3 -3.767,-3.417 -3.8,-3.55L-5.45,-8.8C-5.483,-8.967 -5.483,-9.133 -5.45,-9.3C-5.383,-9.433 -5.283,-9.567 -5.15,-9.7L-0.85,-12.85C-0.75,-12.95 -0.617,-13 -0.45,-13C-0.317,-13 -0.167,-12.95 0,-12.85L4.25,-9.7C4.35,-9.567 4.433,-9.433 4.5,-9.3C4.533,-9.133 4.533,-8.967 4.5,-8.8Z" style="fill:rgb(51,78,99);fill-rule:nonzero;"/>
                    <path d="M2.85,-3.55L4.5,-8.8C4.533,-8.967 4.533,-9.133 4.5,-9.3C4.433,-9.433 4.35,-9.567 4.25,-9.7L0,-12.85C-0.167,-12.95 -0.317,-13 -0.45,-13C-0.617,-13 -0.75,-12.95 -0.85,-12.85L-5.15,-9.7C-5.283,-9.567 -5.383,-9.433 -5.45,-9.3C-5.483,-9.133 -5.483,-8.967 -5.45,-8.8L-3.8,-3.55C-3.767,-3.417 -3.667,-3.3 -3.5,-3.2C-3.367,-3.1 -3.233,-3.05 -3.1,-3.05L2.15,-3.05C2.317,-3.05 2.467,-3.1 2.6,-3.2C2.733,-3.3 2.817,-3.417 2.85,-3.55Z" style="fill:rgb(255,102,153);fill-rule:nonzero;"/>
                    <path d="M17.65,-16C18.483,-19.333 17.733,-21.083 15.4,-21.25L10.05,-21.25L10.05,-21.5C10.083,-21.667 10.1,-21.833 10.1,-22C10.1,-24.5 9.083,-26.65 7.05,-28.45C4.95,-30.15 2.433,-31 -0.5,-31C-3.433,-31 -5.95,-30.15 -8.05,-28.45C-10.083,-26.65 -11.1,-24.5 -11.1,-22C-11.1,-21.833 -11.083,-21.667 -11.05,-21.5C-11.05,-21.4 -11.033,-21.317 -11,-21.25L-16.15,-21.25C-18.583,-21.383 -19.45,-19.633 -18.75,-16L-15.5,-2.25L-8.85,-2.25C-9.783,-3.717 -10.25,-5.383 -10.25,-7.25C-10.25,-9.917 -9.3,-12.2 -7.4,-14.1C-5.5,-16 -3.217,-16.95 -0.55,-16.95C2.117,-16.95 4.4,-16 6.3,-14.1C8.167,-12.2 9.1,-9.917 9.1,-7.25C9.1,-5.383 8.65,-3.717 7.75,-2.25L14.4,-2.25L17.65,-16Z" style="fill:rgb(71,124,166);fill-rule:nonzero;"/>
                </g>
            </g>
        </g>
        <g transform="matrix(0.991531,0.129852,-0.129852,0.991531,337.2,463.95)">
            <g>
                <g id="headShock_0_Layer0_0_FILL">
                    <path d="M11.85,-7.1C15.283,-10.5 17,-14.617 17,-19.45C17,-24.283 15.283,-28.417 11.85,-31.85C8.417,-35.283 4.283,-37 -0.55,-37C-5.383,-37 -9.517,-35.283 -12.95,-31.85C-16.383,-28.417 -18.1,-24.283 -18.1,-19.45C-18.1,-14.617 -16.383,-10.5 -12.95,-7.1C-9.517,-3.633 -5.383,-1.9 -0.55,-1.9C4.283,-1.9 8.417,-3.633 11.85,-7.1M9.4,-19.45C9.4,-16.717 8.433,-14.383 6.5,-12.45C4.533,-10.483 2.183,-9.5 -0.55,-9.5C-3.283,-9.5 -5.617,-10.483 -7.55,-12.45C-9.517,-14.383 -10.5,-16.717 -10.5,-19.45C-10.5,-22.183 -9.517,-24.517 -7.55,-26.45C-5.617,-28.417 -3.283,-29.4 -0.55,-29.4C2.183,-29.4 4.533,-28.417 6.5,-26.45C8.433,-24.517 9.4,-22.183 9.4,-19.45Z" style="fill:rgb(191,212,229);fill-rule:nonzero;"/>
                    <path d="M6.5,-12.45C8.433,-14.383 9.4,-16.717 9.4,-19.45C9.4,-22.183 8.433,-24.517 6.5,-26.45C4.533,-28.417 2.183,-29.4 -0.55,-29.4C-3.283,-29.4 -5.617,-28.417 -7.55,-26.45C-9.517,-24.517 -10.5,-22.183 -10.5,-19.45C-10.5,-16.717 -9.517,-14.383 -7.55,-12.45C-5.617,-10.483 -3.283,-9.5 -0.55,-9.5C2.183,-9.5 4.533,-10.483 6.5,-12.45Z" style="fill:white;fill-rule:nonzero;"/>
                </g>
            </g>
            <g>
                <g id="headShock_0_Layer0_1_FILL">
                    <path d="M-16,-30.45C-16.633,-30.083 -17.05,-29.533 -17.25,-28.8L-19.45,-20.6C-19.65,-19.867 -19.567,-19.15 -19.2,-18.45C-18.767,-17.817 -18.183,-17.4 -17.45,-17.2L-17.4,-17.2C-16.667,-17 -15.967,-17.067 -15.3,-17.4C-14.633,-17.833 -14.2,-18.417 -14,-19.15L-11.85,-27.35C-11.65,-28.083 -11.75,-28.783 -12.15,-29.45C-12.517,-30.117 -13.05,-30.55 -13.75,-30.75L-13.8,-30.75C-14.533,-30.95 -15.267,-30.85 -16,-30.45Z" style="fill:rgb(71,124,166);fill-rule:nonzero;"/>
                </g>
            </g>
            <g>
                <g id="headShock_0_Layer0_2_FILL">
                    <path d="M16.3,-28.8C16.1,-29.533 15.683,-30.083 15.05,-30.45C14.317,-30.85 13.583,-30.95 12.85,-30.75L12.8,-30.75C12.067,-30.55 11.517,-30.117 11.15,-29.45C10.75,-28.783 10.65,-28.083 10.85,-27.35L13.05,-19.15C13.25,-18.417 13.683,-17.833 14.35,-17.4C15.017,-17.067 15.717,-17 16.45,-17.2L16.5,-17.2C17.2,-17.4 17.767,-17.817 18.2,-18.45C18.567,-19.15 18.65,-19.867 18.45,-20.6L16.3,-28.8Z" style="fill:rgb(71,124,166);fill-rule:nonzero;"/>
                </g>
            </g>
            <g>
                <g id="headShock_0_Layer0_3_FILL">
                    <path d="M-24.65,-11C-26.217,-9.433 -27,-7.55 -27,-5.35C-27,-3.15 -26.217,-1.283 -24.65,0.25C-23.05,1.85 -21.167,2.65 -19,2.65C-16.8,2.65 -14.9,1.85 -13.3,0.25C-11.767,-1.283 -11,-3.15 -11,-5.35C-11,-7.55 -11.767,-9.433 -13.3,-11C-14.9,-12.6 -16.8,-13.4 -19,-13.4C-21.167,-13.4 -23.05,-12.6 -24.65,-11M-22.35,-1.95C-23.283,-2.883 -23.75,-4.017 -23.75,-5.35C-23.75,-6.65 -23.283,-7.783 -22.35,-8.75C-21.417,-9.683 -20.3,-10.15 -19,-10.15C-17.633,-10.15 -16.483,-9.683 -15.55,-8.75C-14.617,-7.783 -14.15,-6.65 -14.15,-5.35C-14.15,-4.017 -14.617,-2.883 -15.55,-1.95C-16.483,-0.983 -17.633,-0.5 -19,-0.5C-20.3,-0.5 -21.417,-0.983 -22.35,-1.95M18,-13.4C15.833,-13.4 13.95,-12.6 12.35,-11C10.783,-9.433 10,-7.55 10,-5.35C10,-3.15 10.783,-1.283 12.35,0.25C13.95,1.85 15.833,2.65 18,2.65C20.2,2.65 22.1,1.85 23.7,0.25C25.233,-1.283 26,-3.15 26,-5.35C26,-7.55 25.233,-9.433 23.7,-11C22.1,-12.6 20.2,-13.4 18,-13.4M18,-0.5C16.7,-0.5 15.583,-0.983 14.65,-1.95C13.683,-2.883 13.2,-4.017 13.2,-5.35C13.2,-6.65 13.683,-7.783 14.65,-8.75C15.583,-9.683 16.7,-10.15 18,-10.15C19.333,-10.15 20.483,-9.683 21.45,-8.75C22.383,-7.783 22.85,-6.65 22.85,-5.35C22.85,-4.017 22.383,-2.883 21.45,-1.95C20.483,-0.983 19.333,-0.5 18,-0.5Z" style="fill:rgb(83,147,197);fill-rule:nonzero;"/>
                    <path d="M-23.75,-5.35C-23.75,-4.017 -23.283,-2.883 -22.35,-1.95C-21.417,-0.983 -20.3,-0.5 -19,-0.5C-17.633,-0.5 -16.483,-0.983 -15.55,-1.95C-14.617,-2.883 -14.15,-4.017 -14.15,-5.35C-14.15,-6.65 -14.617,-7.783 -15.55,-8.75C-16.483,-9.683 -17.633,-10.15 -19,-10.15C-20.3,-10.15 -21.417,-9.683 -22.35,-8.75C-23.283,-7.783 -23.75,-6.65 -23.75,-5.35M14.65,-1.95C15.583,-0.983 16.7,-0.5 18,-0.5C19.333,-0.5 20.483,-0.983 21.45,-1.95C22.383,-2.883 22.85,-4.017 22.85,-5.35C22.85,-6.65 22.383,-7.783 21.45,-8.75C20.483,-9.683 19.333,-10.15 18,-10.15C16.7,-10.15 15.583,-9.683 14.65,-8.75C13.683,-7.783 13.2,-6.65 13.2,-5.35C13.2,-4.017 13.683,-2.883 14.65,-1.95Z" style="fill:rgb(71,124,166);fill-rule:nonzero;"/>
                </g>
            </g>
            <g>
                <g id="headShock_0_Layer0_4_FILL">
                    <path d="M-18.2,8L-10.2,8C-10.233,1.467 -13.333,-2.767 -19.5,-4.7L-18.2,8M11.7,8C15.267,7.533 17.3,5.633 17.8,2.3L18.7,-6.45C12.667,-3.35 9.533,1.467 9.3,8L11.7,8Z" style="fill:rgb(51,78,99);fill-rule:nonzero;"/>
                    <path d="M18.7,-6.45L20.45,-23.35L-21.4,-23.35L-19.5,-4.7C-13.333,-2.767 -10.233,1.467 -10.2,8L9.3,8C9.533,1.467 12.667,-3.35 18.7,-6.45Z" style="fill:rgb(83,147,197);fill-rule:nonzero;"/>
                </g>
            </g>
            <g>
                <g id="headShock_0_Layer0_5_FILL">
                    <path d="M5.45,-4.6C7.017,-6.167 7.8,-8.05 7.8,-10.25C7.8,-12.483 7.017,-14.367 5.45,-15.9C3.883,-17.467 2,-18.25 -0.2,-18.25C-2.433,-18.25 -4.317,-17.467 -5.85,-15.9C-7.417,-14.367 -8.2,-12.483 -8.2,-10.25C-8.2,-8.05 -7.417,-6.167 -5.85,-4.6C-4.317,-3.033 -2.433,-2.25 -0.2,-2.25C2,-2.25 3.883,-3.033 5.45,-4.6M5.15,-10.25C5.15,-8.783 4.617,-7.533 3.55,-6.5C2.517,-5.433 1.267,-4.9 -0.2,-4.9C-1.7,-4.9 -2.983,-5.433 -4.05,-6.5C-5.083,-7.533 -5.6,-8.783 -5.6,-10.25C-5.6,-11.75 -5.083,-13.033 -4.05,-14.1C-2.983,-15.1 -1.7,-15.6 -0.2,-15.6C1.267,-15.6 2.517,-15.1 3.55,-14.1C4.617,-13.033 5.15,-11.75 5.15,-10.25Z" style="fill:rgb(71,124,166);fill-rule:nonzero;"/>
                    <path d="M3.55,-6.5C4.617,-7.533 5.15,-8.783 5.15,-10.25C5.15,-11.75 4.617,-13.033 3.55,-14.1C2.517,-15.1 1.267,-15.6 -0.2,-15.6C-1.7,-15.6 -2.983,-15.1 -4.05,-14.1C-5.083,-13.033 -5.6,-11.75 -5.6,-10.25C-5.6,-8.783 -5.083,-7.533 -4.05,-6.5C-2.983,-5.433 -1.7,-4.9 -0.2,-4.9C1.267,-4.9 2.517,-5.433 3.55,-6.5M2.9,-10.25C2.9,-9.65 2.683,-9.15 2.25,-8.75C1.883,-8.317 1.4,-8.1 0.8,-8.1C0.2,-8.1 -0.317,-8.317 -0.75,-8.75C-1.15,-9.15 -1.35,-9.65 -1.35,-10.25C-1.35,-10.85 -1.15,-11.367 -0.75,-11.8C-0.317,-12.2 0.2,-12.4 0.8,-12.4C1.4,-12.4 1.883,-12.2 2.25,-11.8C2.683,-11.367 2.9,-10.85 2.9,-10.25Z" style="fill:rgb(255,204,0);fill-rule:nonzero;"/>
                    <path d="M2.25,-8.75C2.683,-9.15 2.9,-9.65 2.9,-10.25C2.9,-10.85 2.683,-11.367 2.25,-11.8C1.883,-12.2 1.4,-12.4 0.8,-12.4C0.2,-12.4 -0.317,-12.2 -0.75,-11.8C-1.15,-11.367 -1.35,-10.85 -1.35,-10.25C-1.35,-9.65 -1.15,-9.15 -0.75,-8.75C-0.317,-8.317 0.2,-8.1 0.8,-8.1C1.4,-8.1 1.883,-8.317 2.25,-8.75Z" style="fill:white;fill-rule:nonzero;"/>
                </g>
            </g>
            <g>
                <g id="headShock_0_Layer0_6_FILL">
                    <path d="M15.15,-7.9C15.75,-8.467 16.05,-9.15 16.05,-9.95C16.05,-10.75 15.75,-11.45 15.15,-12.05C14.583,-12.617 13.9,-12.9 13.1,-12.9C12.3,-12.9 11.6,-12.617 11,-12.05C10.433,-11.45 10.15,-10.75 10.15,-9.95C10.15,-9.15 10.433,-8.467 11,-7.9C11.6,-7.333 12.3,-7.05 13.1,-7.05C13.9,-7.05 14.583,-7.333 15.15,-7.9Z" style="fill:rgb(71,124,166);fill-rule:nonzero;"/>
                </g>
            </g>
            <g>
                <g id="headShock_0_Layer0_7_FILL">
                    <path d="M-11.55,-7.9C-10.95,-8.467 -10.65,-9.15 -10.65,-9.95C-10.65,-10.75 -10.95,-11.45 -11.55,-12.05C-12.117,-12.617 -12.783,-12.9 -13.55,-12.9C-14.35,-12.9 -15.05,-12.617 -15.65,-12.05C-16.217,-11.45 -16.5,-10.75 -16.5,-9.95C-16.5,-9.15 -16.217,-8.467 -15.65,-7.9C-15.05,-7.333 -14.35,-7.05 -13.55,-7.05C-12.783,-7.05 -12.117,-7.333 -11.55,-7.9Z" style="fill:rgb(71,124,166);fill-rule:nonzero;"/>
                </g>
            </g>
            <g>
                <g id="headShock_0_Layer0_8_FILL">
                    <path d="M-8.35,0.8C-8.883,1.333 -9.15,1.983 -9.15,2.75C-9.15,3.517 -8.883,4.167 -8.35,4.7C-8.211,4.839 -8.061,4.955 -7.9,5.05C-7.87,5.022 -7.836,4.988 -7.8,4.95C-7.133,4.317 -6.8,3.55 -6.8,2.65C-6.8,1.77 -7.117,1.003 -7.75,0.35C-7.966,0.466 -8.166,0.616 -8.35,0.8M8.5,2.75C8.5,1.983 8.233,1.333 7.7,0.8C7.517,0.617 7.317,0.467 7.1,0.35C6.5,1.003 6.2,1.77 6.2,2.65C6.2,3.55 6.517,4.317 7.15,4.95C7.188,4.988 7.221,5.021 7.25,5.05C7.412,4.954 7.562,4.838 7.7,4.7C8.233,4.167 8.5,3.517 8.5,2.75Z" style="fill:rgb(51,78,99);fill-rule:nonzero;"/>
                    <path d="M7.1,0.35C6.703,0.117 6.253,0 5.75,0L-6.4,0C-6.902,0 -7.352,0.117 -7.75,0.35C-7.117,1.003 -6.8,1.77 -6.8,2.65C-6.8,3.55 -7.133,4.317 -7.8,4.95C-7.836,4.988 -7.87,5.022 -7.9,5.05C-7.467,5.35 -6.967,5.5 -6.4,5.5L5.75,5.5C6.319,5.5 6.819,5.35 7.25,5.05C7.221,5.021 7.188,4.988 7.15,4.95C6.517,4.317 6.2,3.55 6.2,2.65C6.2,1.77 6.5,1.003 7.1,0.35Z" style="fill:white;fill-rule:nonzero;"/>
                </g>
            </g>
        </g>
        <g transform="matrix(1.24864,0,0,0.828354,334.9,477.35)">
            <g>
                <g id="shadow_0_Layer0_0_FILL">
                    <path d="M9.45,-9.55C6.85,-12.15 3.7,-13.45 0,-13.45C-3.7,-13.45 -6.883,-12.15 -9.55,-9.55C-12.15,-6.883 -13.45,-3.7 -13.45,0C-13.45,3.7 -12.15,6.85 -9.55,9.45C-6.883,12.117 -3.7,13.45 0,13.45C3.7,13.45 6.85,12.117 9.45,9.45C12.117,6.85 13.45,3.7 13.45,0C13.45,-3.7 12.117,-6.883 9.45,-9.55Z" style="fill:url(#_Radial1);fill-rule:nonzero;"/>
                </g>
            </g>
        </g>
        <g transform="matrix(-0.25885,0.965912,-0.965912,-0.25885,355.05,477.35)">
            <g>
                <g id="arm_0_Layer0_0_FILL1" serif:id="arm_0_Layer0_0_FILL">
                    <path d="M6.4,14.7C5.528,14.7 4.711,14.533 3.95,14.2C4.445,16.073 4.728,18.073 4.8,20.2C4.833,21.267 5.283,22.183 6.15,22.95C6.95,23.683 7.917,24.033 9.05,24C10.183,23.967 11.15,23.55 11.95,22.75C12.683,21.917 13.033,20.967 13,19.9C12.885,16.866 12.452,14.033 11.7,11.4C11.432,12.016 11.032,12.583 10.5,13.1C9.367,14.167 8,14.7 6.4,14.7M6.4,3.45C7.088,3.45 7.722,3.55 8.3,3.75C6.362,0.684 3.795,-1.966 0.6,-4.2C-0.333,-4.867 -1.367,-5.117 -2.5,-4.95C-3.633,-4.783 -4.517,-4.267 -5.15,-3.4C-5.85,-2.533 -6.117,-1.55 -5.95,-0.45C-5.75,0.617 -5.2,1.483 -4.3,2.15C-2.236,3.633 -0.519,5.349 0.85,7.3C1.118,6.498 1.585,5.765 2.25,5.1C3.417,4 4.8,3.45 6.4,3.45M5.05,7.1C4.917,7.233 4.8,7.383 4.7,7.55C4.4,7.983 4.25,8.483 4.25,9.05C4.25,9.817 4.517,10.467 5.05,11C5.617,11.533 6.3,11.8 7.1,11.8C7.7,11.8 8.233,11.667 8.7,11.4C8.833,11.267 8.967,11.133 9.1,11C9.367,10.767 9.567,10.55 9.7,10.35C9.9,9.95 10,9.517 10,9.05C10,8.283 9.7,7.633 9.1,7.1C8.567,6.567 7.9,6.3 7.1,6.3C6.6,6.3 6.167,6.4 5.8,6.6C5.533,6.733 5.283,6.9 5.05,7.1Z" style="fill:rgb(71,124,166);fill-rule:nonzero;"/>
                    <path d="M11.7,11.4C12.067,10.701 12.25,9.934 12.25,9.1C12.25,7.567 11.667,6.233 10.5,5.1C9.854,4.473 9.121,4.023 8.3,3.75C7.722,3.55 7.088,3.45 6.4,3.45C4.8,3.45 3.417,4 2.25,5.1C1.585,5.765 1.118,6.498 0.85,7.3C0.65,7.866 0.55,8.466 0.55,9.1C0.55,10.633 1.117,11.967 2.25,13.1C2.781,13.585 3.348,13.952 3.95,14.2C4.711,14.533 5.528,14.7 6.4,14.7C8,14.7 9.367,14.167 10.5,13.1C11.032,12.583 11.432,12.016 11.7,11.4M4.7,7.55C4.8,7.383 4.917,7.233 5.05,7.1C5.283,6.9 5.533,6.733 5.8,6.6C6.167,6.4 6.6,6.3 7.1,6.3C7.9,6.3 8.567,6.567 9.1,7.1C9.7,7.633 10,8.283 10,9.05C10,9.517 9.9,9.95 9.7,10.35C9.567,10.55 9.367,10.767 9.1,11C8.967,11.133 8.833,11.267 8.7,11.4C8.233,11.667 7.7,11.8 7.1,11.8C6.3,11.8 5.617,11.533 5.05,11C4.517,10.467 4.25,9.817 4.25,9.05C4.25,8.483 4.4,7.983 4.7,7.55Z" style="fill:rgb(51,78,99);fill-rule:nonzero;"/>
                </g>
            </g>
        </g>
        <g transform="matrix(-0.383636,0.923477,-0.923477,-0.383636,334.35,480.45)">
            <g>
                <g id="hand_0_Layer0_0_FILL">
                    <path d="M-1.15,10.65C-1.217,10.583 -1.267,10.6 -1.3,10.7C-1.367,10.8 -1.417,10.917 -1.45,11.05L-1.45,14.55C-1.45,14.65 -1.4,14.783 -1.3,14.95C-1.233,14.983 -1.15,15 -1.05,15C0.817,14.967 2.417,14.283 3.75,12.95L3.8,12.95C5.2,11.55 5.933,9.85 6,7.85C6.033,5.817 5.383,4.1 4.05,2.7L3.9,2.55C3.882,2.92 3.815,3.287 3.7,3.65C3.36,4.916 2.627,5.899 1.5,6.6C1.667,6.965 1.75,7.348 1.75,7.75C1.683,8.517 1.417,9.183 0.95,9.75C0.917,9.75 0.867,9.767 0.8,9.8C0.3,10.333 -0.35,10.617 -1.15,10.65M-5.7,-0.45C-5.976,-0.389 -6.26,-0.323 -6.55,-0.25C-8.417,0.183 -9.883,1.267 -10.95,3C-11.95,4.733 -12.233,6.567 -11.8,8.5L-11.8,8.6C-11.3,10.433 -10.267,11.85 -8.7,12.85C-8.6,12.917 -8.5,12.95 -8.4,12.95C-8.333,12.917 -8.283,12.85 -8.25,12.75L-6.3,9.7C-6.233,9.633 -6.2,9.567 -6.2,9.5C-6.267,9.367 -6.333,9.267 -6.4,9.2C-7,8.8 -7.4,8.233 -7.6,7.5L-7.6,7.4C-7.767,6.667 -7.65,5.967 -7.25,5.3C-6.926,4.776 -6.526,4.393 -6.05,4.15C-6.428,3.056 -6.478,1.939 -6.2,0.8C-6.072,0.362 -5.905,-0.055 -5.7,-0.45Z" style="fill:rgb(191,212,229);fill-rule:nonzero;"/>
                    <path d="M3.25,-0.3C2.583,-1.533 1.567,-2.367 0.2,-2.8C-1.133,-3.2 -2.45,-3.05 -3.75,-2.35C-4.588,-1.852 -5.238,-1.218 -5.7,-0.45C-5.905,-0.055 -6.072,0.362 -6.2,0.8C-6.478,1.939 -6.428,3.056 -6.05,4.15C-5.955,4.367 -5.855,4.584 -5.75,4.8C-5.05,6.033 -4.017,6.85 -2.65,7.25C-1.283,7.617 0.017,7.467 1.25,6.8C1.343,6.746 1.427,6.679 1.5,6.6C2.627,5.899 3.36,4.916 3.7,3.65C3.815,3.287 3.882,2.92 3.9,2.55C4.005,1.58 3.789,0.63 3.25,-0.3Z" style="fill:rgb(83,147,197);fill-rule:nonzero;"/>
                </g>
            </g>
        </g>
        <g transform="matrix(-1,0,0,1,311.7,491)">
            <g>
                <g id="hand_0_Layer0_0_FILL1" serif:id="hand_0_Layer0_0_FILL">
                    <path d="M-1.15,10.65C-1.217,10.583 -1.267,10.6 -1.3,10.7C-1.367,10.8 -1.417,10.917 -1.45,11.05L-1.45,14.55C-1.45,14.65 -1.4,14.783 -1.3,14.95C-1.233,14.983 -1.15,15 -1.05,15C0.817,14.967 2.417,14.283 3.75,12.95L3.8,12.95C5.2,11.55 5.933,9.85 6,7.85C6.033,5.817 5.383,4.1 4.05,2.7L3.9,2.55C3.882,2.92 3.815,3.287 3.7,3.65C3.36,4.916 2.627,5.899 1.5,6.6C1.667,6.965 1.75,7.348 1.75,7.75C1.683,8.517 1.417,9.183 0.95,9.75C0.917,9.75 0.867,9.767 0.8,9.8C0.3,10.333 -0.35,10.617 -1.15,10.65M-5.7,-0.45C-5.976,-0.389 -6.26,-0.323 -6.55,-0.25C-8.417,0.183 -9.883,1.267 -10.95,3C-11.95,4.733 -12.233,6.567 -11.8,8.5L-11.8,8.6C-11.3,10.433 -10.267,11.85 -8.7,12.85C-8.6,12.917 -8.5,12.95 -8.4,12.95C-8.333,12.917 -8.283,12.85 -8.25,12.75L-6.3,9.7C-6.233,9.633 -6.2,9.567 -6.2,9.5C-6.267,9.367 -6.333,9.267 -6.4,9.2C-7,8.8 -7.4,8.233 -7.6,7.5L-7.6,7.4C-7.767,6.667 -7.65,5.967 -7.25,5.3C-6.926,4.776 -6.526,4.393 -6.05,4.15C-6.428,3.056 -6.478,1.939 -6.2,0.8C-6.072,0.362 -5.905,-0.055 -5.7,-0.45Z" style="fill:rgb(191,212,229);fill-rule:nonzero;"/>
                    <path d="M3.25,-0.3C2.583,-1.533 1.567,-2.367 0.2,-2.8C-1.133,-3.2 -2.45,-3.05 -3.75,-2.35C-4.588,-1.852 -5.238,-1.218 -5.7,-0.45C-5.905,-0.055 -6.072,0.362 -6.2,0.8C-6.478,1.939 -6.428,3.056 -6.05,4.15C-5.955,4.367 -5.855,4.584 -5.75,4.8C-5.05,6.033 -4.017,6.85 -2.65,7.25C-1.283,7.617 0.017,7.467 1.25,6.8C1.343,6.746 1.427,6.679 1.5,6.6C2.627,5.899 3.36,4.916 3.7,3.65C3.815,3.287 3.882,2.92 3.9,2.55C4.005,1.58 3.789,0.63 3.25,-0.3Z" style="fill:rgb(83,147,197);fill-rule:nonzero;"/>
                </g>
            </g>
        </g>
    </g>
    <defs>
        <radialGradient id="_Radial1" cx="0" cy="0" r="1" gradientUnits="userSpaceOnUse" gradientTransform="matrix(13.5875,0,0,13.5875,0,0)"><stop offset="0" style="stop-color:black;stop-opacity:0.3"/><stop offset="1" style="stop-color:black;stop-opacity:0"/></radialGradient>
    </defs>
</svg>
