<?xml version="1.0" encoding="UTF-8" standalone="no"?>
<!DOCTYPE svg PUBLIC "-//W3C//DTD SVG 1.1//EN" "http://www.w3.org/Graphics/SVG/1.1/DTD/svg11.dtd">
<svg width="100%" height="100%" viewBox="0 0 78 96" version="1.1" xmlns="http://www.w3.org/2000/svg" xmlns:xlink="http://www.w3.org/1999/xlink" xml:space="preserve" xmlns:serif="http://www.serif.com/" style="fill-rule:evenodd;clip-rule:evenodd;stroke-linejoin:round;stroke-miterlimit:2;">
    <g transform="matrix(1,0,0,1,-16.25,-288.314)">
        <g id="back_FL_FL_FL_FL_FL_FL_FL_FL_FL_FL_FL_FL_FL_FL_FL_FL_FL_FL_FL_FL_FL_FL_FL_FL" transform="matrix(1,0,0,1,48.25,354.4)">
            <g>
                <g id="Symbol_1_0_Layer0_0_MEMBER_0_FILL">
                    <path d="M-16.4,-34.65L-20.1,-34.85C-20.5,-34.883 -20.867,-34.75 -21.2,-34.45C-21.533,-34.15 -21.717,-33.783 -21.75,-33.35C-21.983,-28.65 -23.85,-24.517 -27.35,-20.95C-27.65,-20.717 -27.8,-20.383 -27.8,-19.95C-27.833,-19.483 -27.717,-19.1 -27.45,-18.8L-27.45,-18.75C-27.417,-18.783 -27.383,-18.817 -27.35,-18.85C-22.183,-23.35 -18.717,-28.3 -16.95,-33.7C-16.85,-34.033 -16.667,-34.35 -16.4,-34.65Z" style="fill:rgb(69,74,81);fill-rule:nonzero;"/>
                    <path d="M-5.95,-34.05L-16.4,-34.65C-16.667,-34.35 -16.85,-34.033 -16.95,-33.7C-18.717,-28.3 -22.183,-23.35 -27.35,-18.85C-27.383,-18.817 -27.417,-18.783 -27.45,-18.75C-27.15,-18.45 -26.8,-18.267 -26.4,-18.2C-15.4,-17.033 -8.1,-21.583 -4.5,-31.85C-4.4,-32.217 -4.383,-32.55 -4.45,-32.85C-4.55,-33.183 -4.733,-33.45 -5,-33.65C-5.3,-33.917 -5.617,-34.05 -5.95,-34.05Z" style="fill:rgb(60,62,65);fill-rule:nonzero;"/>
                </g>
            </g>
            <g>
                <g id="Symbol_1_0_Layer0_0_MEMBER_1_FILL">
                    <path d="M17,-33.7C16.9,-34.033 16.717,-34.35 16.45,-34.65L6,-34.05C5.667,-34.05 5.35,-33.917 5.05,-33.65C4.783,-33.45 4.6,-33.183 4.5,-32.85C4.433,-32.55 4.45,-32.217 4.55,-31.85C8.15,-21.583 15.45,-17.033 26.45,-18.2C26.85,-18.267 27.2,-18.45 27.5,-18.75C27.467,-18.783 27.433,-18.817 27.4,-18.85C22.233,-23.35 18.767,-28.3 17,-33.7Z" style="fill:rgb(60,62,65);fill-rule:nonzero;"/>
                    <path d="M21.8,-33.35C21.767,-33.783 21.583,-34.15 21.25,-34.45C20.917,-34.75 20.55,-34.883 20.15,-34.85L16.45,-34.65C16.717,-34.35 16.9,-34.033 17,-33.7C18.767,-28.3 22.233,-23.35 27.4,-18.85C27.433,-18.817 27.467,-18.783 27.5,-18.75L27.5,-18.8C27.767,-19.1 27.883,-19.483 27.85,-19.95C27.85,-20.383 27.7,-20.717 27.4,-20.95C23.9,-24.517 22.033,-28.65 21.8,-33.35Z" style="fill:rgb(69,74,81);fill-rule:nonzero;"/>
                </g>
            </g>
        </g>
        <g transform="matrix(1,0,0,1,56,360.95)">
            <g>
                <g id="leg_0_Layer0_0_FILL">
                    <path d="M10.9,23L11,20L-3.95,20L-3.95,23L10.9,23Z" style="fill:white;fill-rule:nonzero;"/>
                    <path d="M11,20C7.767,19.1 5.85,17.1 5.25,14L-3.95,14L-3.95,20L11,20Z" style="fill:rgb(191,212,229);fill-rule:nonzero;"/>
                    <path d="M-3.95,14L5.3,14L5.45,9L-3.95,9L-3.95,14Z" style="fill:rgb(191,121,88);fill-rule:nonzero;"/>
                    <path d="M5.9,-0.2C5.9,-1.8 5.267,-3.167 4,-4.3C2.767,-5.433 1.25,-6 -0.55,-6C-2.317,-6 -3.833,-5.433 -5.1,-4.3C-6.367,-3.167 -7,-1.8 -7,-0.2C-5.033,1.4 -4.017,4.467 -3.95,9L5.45,9L5.9,-0.2Z" style="fill:rgb(103,106,198);fill-rule:nonzero;"/>
                </g>
            </g>
        </g>
        <g transform="matrix(-1,0,0,1,40,360.95)">
            <g>
                <g id="leg_0_Layer0_0_FILL1" serif:id="leg_0_Layer0_0_FILL">
                    <path d="M10.9,23L11,20L-3.95,20L-3.95,23L10.9,23Z" style="fill:white;fill-rule:nonzero;"/>
                    <path d="M11,20C7.767,19.1 5.85,17.1 5.25,14L-3.95,14L-3.95,20L11,20Z" style="fill:rgb(191,212,229);fill-rule:nonzero;"/>
                    <path d="M-3.95,14L5.3,14L5.45,9L-3.95,9L-3.95,14Z" style="fill:rgb(191,121,88);fill-rule:nonzero;"/>
                    <path d="M5.9,-0.2C5.9,-1.8 5.267,-3.167 4,-4.3C2.767,-5.433 1.25,-6 -0.55,-6C-2.317,-6 -3.833,-5.433 -5.1,-4.3C-6.367,-3.167 -7,-1.8 -7,-0.2C-5.033,1.4 -4.017,4.467 -3.95,9L5.45,9L5.9,-0.2Z" style="fill:rgb(103,106,198);fill-rule:nonzero;"/>
                </g>
            </g>
        </g>
        <g transform="matrix(-0.25882,0.965912,0.965912,0.25882,62,341.8)">
            <g>
                <g id="arm_0_Layer0_0_FILL">
                    <path d="M4.85,17.35C5.283,19.717 5.583,21.55 5.75,22.85C5.917,24.15 6.717,24.867 8.15,25C9.517,25.1 10.733,24.7 11.8,23.8C12.867,22.9 13.467,21.783 13.6,20.45C13.867,17.483 13.65,14.633 12.95,11.9L4.2,15.15C4.5,15.917 4.717,16.65 4.85,17.35Z" style="fill:rgb(191,121,88);fill-rule:nonzero;"/>
                    <path d="M0.3,8.75C1.133,9.85 1.867,10.9 2.5,11.9L11.6,8.05C11,6.683 10.267,5.333 9.4,4C7.667,1.333 5.4,-1.233 2.6,-3.7C1.533,-4.633 0.3,-5.067 -1.1,-5C-2.533,-4.933 -3.7,-4.383 -4.6,-3.35C-5.6,-2.383 -6.067,-1.2 -6,0.2C-5.933,1.567 -5.367,2.7 -4.3,3.6C-2.433,5.267 -0.9,6.983 0.3,8.75Z" style="fill:rgb(61,191,123);fill-rule:nonzero;"/>
                    <path d="M12.95,11.9L14,11.45L12.9,7.5L2.5,11.9L1.6,12.25L2.9,15.65L4.2,15.15L12.95,11.9Z" style="fill:rgb(37,168,99);fill-rule:nonzero;"/>
                </g>
            </g>
        </g>
        <g transform="matrix(-1,0,0,1,30.25,341.8)">
            <g>
                <g id="arm_0_Layer0_0_FILL1" serif:id="arm_0_Layer0_0_FILL">
                    <path d="M4.85,17.35C5.283,19.717 5.583,21.55 5.75,22.85C5.917,24.15 6.717,24.867 8.15,25C9.517,25.1 10.733,24.7 11.8,23.8C12.867,22.9 13.467,21.783 13.6,20.45C13.867,17.483 13.65,14.633 12.95,11.9L4.2,15.15C4.5,15.917 4.717,16.65 4.85,17.35Z" style="fill:rgb(191,121,88);fill-rule:nonzero;"/>
                    <path d="M0.3,8.75C1.133,9.85 1.867,10.9 2.5,11.9L11.6,8.05C11,6.683 10.267,5.333 9.4,4C7.667,1.333 5.4,-1.233 2.6,-3.7C1.533,-4.633 0.3,-5.067 -1.1,-5C-2.533,-4.933 -3.7,-4.383 -4.6,-3.35C-5.6,-2.383 -6.067,-1.2 -6,0.2C-5.933,1.567 -5.367,2.7 -4.3,3.6C-2.433,5.267 -0.9,6.983 0.3,8.75Z" style="fill:rgb(61,191,123);fill-rule:nonzero;"/>
                    <path d="M12.95,11.9L14,11.45L12.9,7.5L2.5,11.9L1.6,12.25L2.9,15.65L4.2,15.15L12.95,11.9Z" style="fill:rgb(37,168,99);fill-rule:nonzero;"/>
                </g>
            </g>
        </g>
        <g transform="matrix(1,0,0,1,48,358.05)">
            <g>
                <g id="body_0_Layer0_0_FILL">
                    <path d="M-13.75,3.45C-13.783,4.883 -13.583,6.4 -13.15,8L12.15,8C12.583,6.4 12.783,4.883 12.75,3.45L-13.75,3.45Z" style="fill:rgb(103,106,198);fill-rule:nonzero;"/>
                    <path d="M-13.9,-1.5L-10.95,-1.5C-10.45,-4.333 -11.967,-7 -15.5,-9.5L-15.3,-8.7C-14.6,-6.467 -14.133,-4.067 -13.9,-1.5M14.3,-8.7L14.5,-9.5C10.967,-7 9.467,-4.333 10,-1.5L12.95,-1.5C13.183,-4.067 13.633,-6.467 14.3,-8.7M9.45,-9.1C9.45,-9.667 8.5,-10.167 6.6,-10.6C4.633,-10.933 2.267,-11.1 -0.5,-11.1C-3.267,-11.1 -5.633,-10.933 -7.6,-10.6C-9.5,-10.167 -10.45,-9.667 -10.45,-9.1C-10.45,-8.533 -9.5,-8.083 -7.6,-7.75C-5.633,-7.317 -3.267,-7.1 -0.5,-7.1C2.267,-7.1 4.633,-7.317 6.6,-7.75C8.5,-8.083 9.45,-8.533 9.45,-9.1Z" style="fill:rgb(37,168,99);fill-rule:nonzero;"/>
                    <path d="M14.1,-1.5L-15.05,-1.5L-14.3,3.45L13.35,3.45L14.1,-1.5Z" style="fill:rgb(60,62,65);fill-rule:nonzero;"/>
                    <path d="M17.75,-15.85C18.417,-19.217 17.717,-20.967 15.65,-21.1L-16.15,-21.1C-18.583,-21.233 -19.45,-19.483 -18.75,-15.85C-17.283,-13.75 -16.133,-11.367 -15.3,-8.7L-15.5,-9.5C-11.967,-7 -10.45,-4.333 -10.95,-1.5L10,-1.5C9.467,-4.333 10.967,-7 14.5,-9.5L14.3,-8.7C15.133,-11.367 16.283,-13.75 17.75,-15.85M6.6,-10.6C8.5,-10.167 9.45,-9.667 9.45,-9.1C9.45,-8.533 8.5,-8.083 6.6,-7.75C4.633,-7.317 2.267,-7.1 -0.5,-7.1C-3.267,-7.1 -5.633,-7.317 -7.6,-7.75C-9.5,-8.083 -10.45,-8.533 -10.45,-9.1C-10.45,-9.667 -9.5,-10.167 -7.6,-10.6C-5.633,-10.933 -3.267,-11.1 -0.5,-11.1C2.267,-11.1 4.633,-10.933 6.6,-10.6Z" style="fill:rgb(61,191,123);fill-rule:nonzero;"/>
                </g>
            </g>
            <g>
                <g id="body_0_Layer0_1_FILL">
                    <path d="M10.05,-21.25C9.85,-19.117 8.85,-17.283 7.05,-15.75C4.95,-13.983 2.433,-13.1 -0.5,-13.1C-3.433,-13.1 -5.95,-13.983 -8.05,-15.75C-9.85,-17.25 -10.833,-19.05 -11,-21.15C-11.367,-20.317 -11.55,-19.45 -11.55,-18.55C-11.55,-18.383 -11.533,-18.217 -11.5,-18.05C-11.4,-15.983 -10.35,-14.233 -8.35,-12.8C-6.183,-11.167 -3.567,-10.35 -0.5,-10.35C2.567,-10.35 5.2,-11.167 7.4,-12.8C9.4,-14.233 10.45,-15.983 10.55,-18.05C10.583,-18.217 10.6,-18.383 10.6,-18.55C10.6,-19.483 10.417,-20.383 10.05,-21.25Z" style="fill:white;fill-rule:nonzero;"/>
                    <path d="M10.1,-22.05C10.1,-24.517 9.083,-26.65 7.05,-28.45C4.95,-30.15 2.433,-31 -0.5,-31C-3.433,-31 -5.95,-30.15 -8.05,-28.45C-10.083,-26.65 -11.1,-24.517 -11.1,-22.05C-11.1,-21.883 -11.083,-21.717 -11.05,-21.55C-11.05,-21.417 -11.033,-21.283 -11,-21.15C-10.833,-19.05 -9.85,-17.25 -8.05,-15.75C-5.95,-13.983 -3.433,-13.1 -0.5,-13.1C2.433,-13.1 4.95,-13.983 7.05,-15.75C8.85,-17.283 9.85,-19.117 10.05,-21.25L10.05,-21.55C10.083,-21.717 10.1,-21.883 10.1,-22.05Z" style="fill:rgb(191,121,88);fill-rule:nonzero;"/>
                </g>
            </g>
        </g>
        <g transform="matrix(1.52588e-05,0.999985,0.999985,-1.52588e-05,79.55,354.9)">
            <g>
                <g id="hand_0_Layer0_0_FILL">
                    <path d="M-8.35,7.6L-8.4,6.65C-8.067,2.517 -6.533,-0.7 -3.8,-3C-10.067,1.367 -11.6,4.917 -8.4,7.65L-8.35,7.6Z" style="fill:rgb(168,96,63);fill-rule:nonzero;"/>
                    <path d="M4.2,-3L-3.8,-3C-6.533,-0.7 -8.067,2.517 -8.4,6.65L-8.35,7.6L-8.4,7.65C-8.433,8.75 -8.433,9.933 -8.4,11.2L-8.4,11.55C-8.4,12.517 -7.717,13.133 -6.35,13.4C-4.283,13.833 -2.283,14.033 -0.35,14C4.583,13.967 6.1,8.3 4.2,-3Z" style="fill:rgb(191,121,88);fill-rule:nonzero;"/>
                </g>
            </g>
        </g>
        <g transform="matrix(-1,0,0,1,21.65,363.9)">
            <g>
                <g id="hand_0_Layer0_0_FILL1" serif:id="hand_0_Layer0_0_FILL">
                    <path d="M-8.35,7.6L-8.4,6.65C-8.067,2.517 -6.533,-0.7 -3.8,-3C-10.067,1.367 -11.6,4.917 -8.4,7.65L-8.35,7.6Z" style="fill:rgb(168,96,63);fill-rule:nonzero;"/>
                    <path d="M4.2,-3L-3.8,-3C-6.533,-0.7 -8.067,2.517 -8.4,6.65L-8.35,7.6L-8.4,7.65C-8.433,8.75 -8.433,9.933 -8.4,11.2L-8.4,11.55C-8.4,12.517 -7.717,13.133 -6.35,13.4C-4.283,13.833 -2.283,14.033 -0.35,14C4.583,13.967 6.1,8.3 4.2,-3Z" style="fill:rgb(191,121,88);fill-rule:nonzero;"/>
                </g>
            </g>
        </g>
        <g transform="matrix(1.50739,0,0,1,48.4,338.1)">
            <g>
                <g id="shadow_0_Layer0_0_FILL">
                    <path d="M9.45,-9.55C6.85,-12.15 3.7,-13.45 0,-13.45C-3.7,-13.45 -6.883,-12.15 -9.55,-9.55C-12.15,-6.883 -13.45,-3.7 -13.45,0C-13.45,3.7 -12.15,6.85 -9.55,9.45C-6.883,12.117 -3.7,13.45 0,13.45C3.7,13.45 6.85,12.117 9.45,9.45C12.117,6.85 13.45,3.7 13.45,0C13.45,-3.7 12.117,-6.883 9.45,-9.55Z" style="fill:url(#_Radial1);fill-rule:nonzero;"/>
                </g>
            </g>
        </g>
        <g transform="matrix(0.996567,-0.0825958,0.0825958,0.996567,49.85,330.2)">
            <g>
                <g id="head_0_Layer0_0_FILL">
                    <path d="M23.75,-18.55C23.383,-23.35 20.983,-27.5 16.55,-31C11.717,-34.833 5.883,-36.75 -0.95,-36.75C-7.783,-36.75 -13.617,-34.833 -18.45,-31C-22.85,-27.5 -25.233,-23.35 -25.6,-18.55C-25.233,-13.117 -22.85,-8.433 -18.45,-4.5C-13.617,-0.167 -7.783,2 -0.95,2C5.883,2 11.717,-0.167 16.55,-4.5C20.983,-8.433 23.383,-13.117 23.75,-18.55Z" style="fill:rgb(60,62,65);fill-rule:nonzero;"/>
                    <path d="M23.8,-20C23.8,-26.067 21.383,-31.267 16.55,-35.6C11.717,-39.867 5.883,-42 -0.95,-42C-7.783,-42 -13.617,-39.867 -18.45,-35.6C-23.25,-31.267 -25.65,-26.067 -25.65,-20C-25.65,-19.5 -25.633,-19.017 -25.6,-18.55C-25.233,-23.35 -22.85,-27.5 -18.45,-31C-13.617,-34.833 -7.783,-36.75 -0.95,-36.75C5.883,-36.75 11.717,-34.833 16.55,-31C20.983,-27.5 23.383,-23.35 23.75,-18.55C23.783,-19.017 23.8,-19.5 23.8,-20Z" style="fill:rgb(69,74,81);fill-rule:nonzero;"/>
                </g>
            </g>
            <g>
                <g id="head_0_Layer0_1_MEMBER_0_FILL">
                    <path d="M-24.65,-16.95C-26.217,-15.383 -27,-13.467 -27,-11.2C-27,-9 -26.217,-7.117 -24.65,-5.55C-23.083,-3.917 -21.2,-3.1 -19,-3.1C-16.833,-3.1 -14.95,-3.917 -13.35,-5.55C-11.783,-7.117 -11,-9 -11,-11.2C-11,-13.467 -11.783,-15.383 -13.35,-16.95C-14.95,-18.55 -16.833,-19.35 -19,-19.35C-21.2,-19.35 -23.083,-18.55 -24.65,-16.95M-22.4,-7.8C-23.333,-8.733 -23.8,-9.867 -23.8,-11.2C-23.8,-12.5 -23.333,-13.667 -22.4,-14.7C-21.467,-15.633 -20.333,-16.1 -19,-16.1C-17.633,-16.1 -16.5,-15.633 -15.6,-14.7C-14.667,-13.667 -14.2,-12.5 -14.2,-11.2C-14.2,-9.867 -14.667,-8.733 -15.6,-7.8C-16.5,-6.833 -17.633,-6.35 -19,-6.35C-20.333,-6.35 -21.467,-6.833 -22.4,-7.8M12.35,-5.55C13.917,-3.917 15.8,-3.1 18,-3.1C20.167,-3.1 22.05,-3.917 23.65,-5.55C25.217,-7.117 26,-9 26,-11.2C26,-13.467 25.217,-15.383 23.65,-16.95C22.05,-18.55 20.167,-19.35 18,-19.35C15.8,-19.35 13.917,-18.55 12.35,-16.95C10.783,-15.383 10,-13.467 10,-11.2C10,-9 10.783,-7.117 12.35,-5.55M14.6,-14.7C15.533,-15.633 16.667,-16.1 18,-16.1C19.333,-16.1 20.467,-15.633 21.4,-14.7C22.333,-13.667 22.8,-12.5 22.8,-11.2C22.8,-9.867 22.333,-8.733 21.4,-7.8C20.467,-6.833 19.333,-6.35 18,-6.35C16.667,-6.35 15.533,-6.833 14.6,-7.8C13.667,-8.733 13.2,-9.867 13.2,-11.2C13.2,-12.5 13.667,-13.667 14.6,-14.7Z" style="fill:rgb(191,121,88);fill-rule:nonzero;"/>
                    <path d="M-23.8,-11.2C-23.8,-9.867 -23.333,-8.733 -22.4,-7.8C-21.467,-6.833 -20.333,-6.35 -19,-6.35C-17.633,-6.35 -16.5,-6.833 -15.6,-7.8C-14.667,-8.733 -14.2,-9.867 -14.2,-11.2C-14.2,-12.5 -14.667,-13.667 -15.6,-14.7C-16.5,-15.633 -17.633,-16.1 -19,-16.1C-20.333,-16.1 -21.467,-15.633 -22.4,-14.7C-23.333,-13.667 -23.8,-12.5 -23.8,-11.2M18,-16.1C16.667,-16.1 15.533,-15.633 14.6,-14.7C13.667,-13.667 13.2,-12.5 13.2,-11.2C13.2,-9.867 13.667,-8.733 14.6,-7.8C15.533,-6.833 16.667,-6.35 18,-6.35C19.333,-6.35 20.467,-6.833 21.4,-7.8C22.333,-8.733 22.8,-9.867 22.8,-11.2C22.8,-12.5 22.333,-13.667 21.4,-14.7C20.467,-15.633 19.333,-16.1 18,-16.1Z" style="fill:rgb(168,96,63);fill-rule:nonzero;"/>
                </g>
            </g>
            <g>
                <g id="head_0_Layer0_1_MEMBER_1_FILL">
                    <path d="M18.1,-3.65L20.4,-26.2L-21.45,-26.2L-19.15,-3.65C-17.783,1.283 -14.317,4.717 -8.75,6.65C-5.95,7.617 -3.217,8.067 -0.55,8C2.15,8.067 4.883,7.617 7.65,6.65C13.25,4.717 16.733,1.283 18.1,-3.65Z" style="fill:rgb(191,121,88);fill-rule:nonzero;"/>
                </g>
            </g>
            <g>
                <g id="head_0_Layer0_1_MEMBER_2_FILL">
                    <path d="M1.85,-4.85C2.55,-5.317 2.9,-5.85 2.9,-6.45C2.9,-7.05 2.55,-7.6 1.85,-8.1C1.183,-8.533 0.367,-8.75 -0.6,-8.75C-1.5,-8.75 -2.283,-8.533 -2.95,-8.1C-3.617,-7.6 -3.95,-7.05 -3.95,-6.45C-3.95,-5.85 -3.617,-5.317 -2.95,-4.85C-2.283,-4.317 -1.5,-4.05 -0.6,-4.05C0.367,-4.05 1.183,-4.317 1.85,-4.85Z" style="fill:rgb(149,84,53);fill-rule:nonzero;"/>
                </g>
            </g>
            <g>
                <g id="head_0_Layer0_1_MEMBER_2_MEMBER_0_FILL">
                    <path d="M-13.1,-9.2L-13.1,-9.55C-13.1,-10.717 -12.717,-11.717 -11.95,-12.55C-11.317,-13.217 -10.55,-13.633 -9.65,-13.8L-15.4,-13.8C-14,-12.7 -13.233,-11.167 -13.1,-9.2M-6.45,-7.05C-5.983,-7.717 -5.75,-8.55 -5.75,-9.55C-5.75,-10.517 -5.983,-11.35 -6.45,-12.05C-6.917,-12.75 -7.5,-13.1 -8.2,-13.1C-8.867,-13.1 -9.417,-12.75 -9.85,-12.05C-10.317,-11.35 -10.55,-10.517 -10.55,-9.55C-10.55,-8.55 -10.317,-7.717 -9.85,-7.05C-9.417,-6.35 -8.867,-6 -8.2,-6C-7.5,-6 -6.917,-6.35 -6.45,-7.05M12.05,-9.55L12.05,-9.2C12.183,-11.167 12.933,-12.7 14.3,-13.8L8.6,-13.8C9.5,-13.633 10.267,-13.217 10.9,-12.55C11.667,-11.717 12.05,-10.717 12.05,-9.55M4.7,-9.55C4.7,-8.55 4.933,-7.717 5.4,-7.05C5.833,-6.35 6.4,-6 7.1,-6C7.767,-6 8.333,-6.35 8.8,-7.05C9.267,-7.717 9.5,-8.55 9.5,-9.55C9.5,-10.517 9.267,-11.35 8.8,-12.05C8.333,-12.75 7.767,-13.1 7.1,-13.1C6.4,-13.1 5.833,-12.75 5.4,-12.05C4.933,-11.35 4.7,-10.517 4.7,-9.55Z" style="fill:rgb(60,62,65);fill-rule:nonzero;"/>
                    <path d="M-9.25,-13.85C-9.383,-13.85 -9.517,-13.833 -9.65,-13.8C-10.55,-13.633 -11.317,-13.217 -11.95,-12.55C-12.717,-11.717 -13.1,-10.717 -13.1,-9.55L-13.1,-9.2C-13.033,-8.2 -12.65,-7.317 -11.95,-6.55C-11.15,-5.683 -10.167,-5.25 -9,-5.25C-7.867,-5.25 -6.917,-5.683 -6.15,-6.55C-5.35,-7.383 -4.95,-8.383 -4.95,-9.55C-4.95,-10.717 -5.35,-11.717 -6.15,-12.55C-6.917,-13.417 -7.867,-13.85 -9,-13.85L-9.25,-13.85M-5.75,-9.55C-5.75,-8.55 -5.983,-7.717 -6.45,-7.05C-6.917,-6.35 -7.5,-6 -8.2,-6C-8.867,-6 -9.417,-6.35 -9.85,-7.05C-10.317,-7.717 -10.55,-8.55 -10.55,-9.55C-10.55,-10.517 -10.317,-11.35 -9.85,-12.05C-9.417,-12.75 -8.867,-13.1 -8.2,-13.1C-7.5,-13.1 -6.917,-12.75 -6.45,-12.05C-5.983,-11.35 -5.75,-10.517 -5.75,-9.55M8.6,-13.8C8.467,-13.833 8.333,-13.85 8.2,-13.85L7.9,-13.85C6.767,-13.85 5.833,-13.417 5.1,-12.55C4.3,-11.717 3.9,-10.717 3.9,-9.55C3.9,-8.383 4.3,-7.383 5.1,-6.55C5.833,-5.683 6.767,-5.25 7.9,-5.25C9.1,-5.25 10.1,-5.683 10.9,-6.55C11.6,-7.317 11.983,-8.2 12.05,-9.2L12.05,-9.55C12.05,-10.717 11.667,-11.717 10.9,-12.55C10.267,-13.217 9.5,-13.633 8.6,-13.8M5.4,-7.05C4.933,-7.717 4.7,-8.55 4.7,-9.55C4.7,-10.517 4.933,-11.35 5.4,-12.05C5.833,-12.75 6.4,-13.1 7.1,-13.1C7.767,-13.1 8.333,-12.75 8.8,-12.05C9.267,-11.35 9.5,-10.517 9.5,-9.55C9.5,-8.55 9.267,-7.717 8.8,-7.05C8.333,-6.35 7.767,-6 7.1,-6C6.4,-6 5.833,-6.35 5.4,-7.05Z" style="fill:white;fill-rule:nonzero;"/>
                </g>
            </g>
            <g>
                <g id="head_0_Layer0_1_MEMBER_2_MEMBER_1_FILL">
                    <path d="M1.75,1.2L1.75,-2L-5.9,-2C-6.133,-2 -6.35,-1.917 -6.55,-1.75C-6.783,-1.65 -6.917,-1.483 -6.95,-1.25C-7.017,-1.083 -7.017,-0.867 -6.95,-0.6C-6.917,-0.267 -6.8,0.083 -6.6,0.45C-6.433,0.683 -6.25,0.933 -6.05,1.2L1.75,1.2Z" style="fill:white;fill-rule:nonzero;"/>
                    <path d="M4.9,-2L1.75,-2L1.75,1.2L-6.05,1.2C-5.85,1.567 -5.583,1.867 -5.25,2.1C-3.95,3.367 -2.367,4 -0.5,4C1.3,4 2.867,3.383 4.2,2.15L4.3,2.1C4.8,1.633 5.217,1.083 5.55,0.45C5.75,0.083 5.9,-0.267 6,-0.6C6.033,-0.867 6.017,-1.083 5.95,-1.25C5.883,-1.483 5.75,-1.65 5.55,-1.75C5.35,-1.917 5.133,-2 4.9,-2Z" style="fill:rgb(168,96,63);fill-rule:nonzero;"/>
                </g>
            </g>
            <g>
                <g id="head_0_Layer0_2_FILL">
                    <path d="M20.05,-17.65L21.05,-26.05L20.5,-26.05L20.5,-26.9L-22.2,-26.9L-21.55,-19.25C-14.383,-19.383 -9.083,-20.75 -5.65,-23.35C-2.183,-19.05 1.5,-16.85 5.4,-16.75L6.85,-19.85C11.35,-18.183 15.75,-17.45 20.05,-17.65Z" style="fill:rgb(60,62,65);fill-rule:nonzero;"/>
                </g>
            </g>
            <g>
                <g id="head_0_Layer0_3_FILL">
                    <path d="M17.1,-26.95C16.567,-27.683 15.9,-28.4 15.1,-29.1C11.4,-32.233 6.2,-33.8 -0.5,-33.8C-7.2,-33.8 -12.383,-32.25 -16.05,-29.15C-16.317,-28.983 -16.533,-28.783 -16.7,-28.55C-17.267,-28.083 -17.733,-27.55 -18.1,-26.95C-18.5,-26.417 -18.55,-25.767 -18.25,-25C-13.95,-27.467 -8.033,-28.7 -0.5,-28.7C6.967,-28.7 12.867,-27.483 17.2,-25.05C17.5,-25.783 17.467,-26.417 17.1,-26.95Z" style="fill:rgb(113,162,190);fill-rule:nonzero;"/>
                </g>
            </g>
            <g>
                <g id="head_0_Layer0_4_FILL">
                    <path d="M-16.6,-12.55C-16.2,-13.083 -16.033,-13.7 -16.1,-14.4L-16.75,-20.05L-21.7,-20.05L-20.95,-13.8C-20.883,-13.133 -20.567,-12.567 -20,-12.1C-19.467,-11.7 -18.867,-11.55 -18.2,-11.65L-18.15,-11.65C-17.483,-11.717 -16.967,-12.017 -16.6,-12.55Z" style="fill:rgb(60,62,65);fill-rule:nonzero;"/>
                </g>
            </g>
            <g>
                <g id="head_0_Layer0_5_FILL">
                    <path d="M14.85,-14.4C14.783,-13.7 14.95,-13.083 15.35,-12.55C15.75,-12.017 16.283,-11.717 16.95,-11.65L17,-11.65C17.667,-11.55 18.267,-11.7 18.8,-12.1C19.367,-12.567 19.683,-13.133 19.75,-13.8L20.5,-20.05L15.5,-20.05L14.85,-14.4Z" style="fill:rgb(60,62,65);fill-rule:nonzero;"/>
                </g>
            </g>
            <g>
                <g id="head_0_Layer0_6_MEMBER_0_FILL">
                    <path d="M-14.35,-18.35L-15,-15.95L-5.55,-15L-5,-17L-14.35,-18.35Z" style="fill:rgb(60,62,65);fill-rule:nonzero;"/>
                </g>
            </g>
            <g>
                <g id="head_0_Layer0_6_MEMBER_1_FILL">
                    <path d="M14,-15.8L13.6,-18.2L4.25,-17.75L4.6,-15.7L14,-15.8Z" style="fill:rgb(60,62,65);fill-rule:nonzero;"/>
                </g>
            </g>
            <g>
                <g id="head_0_Layer0_7_FILL">
                    <path d="M19.85,-7.8C19.583,-7.333 19.517,-6.867 19.65,-6.4L20.65,-2.55C20.783,-2.083 21.067,-1.717 21.5,-1.45C21.933,-1.217 22.4,-1.167 22.9,-1.3L22.95,-1.3C23.417,-1.433 23.783,-1.717 24.05,-2.15C24.317,-2.617 24.383,-3.1 24.25,-3.6L23.25,-7.4C23.117,-7.867 22.817,-8.233 22.35,-8.5C21.883,-8.733 21.433,-8.783 21,-8.65L20.95,-8.65C20.45,-8.517 20.083,-8.233 19.85,-7.8Z" style="fill:rgb(238,161,96);fill-rule:nonzero;"/>
                </g>
            </g>
            <g>
                <g id="head_0_Layer0_8_FILL">
                    <path d="M-20.8,-7.8C-21.033,-8.233 -21.4,-8.517 -21.9,-8.65L-21.95,-8.65C-22.417,-8.783 -22.883,-8.733 -23.35,-8.5C-23.817,-8.233 -24.117,-7.867 -24.25,-7.4L-25.2,-3.6C-25.333,-3.1 -25.267,-2.617 -25,-2.15C-24.733,-1.717 -24.383,-1.433 -23.95,-1.3L-23.9,-1.3C-23.4,-1.167 -22.933,-1.217 -22.5,-1.45C-22.033,-1.717 -21.733,-2.083 -21.6,-2.55L-20.6,-6.4C-20.467,-6.867 -20.533,-7.333 -20.8,-7.8Z" style="fill:rgb(238,161,96);fill-rule:nonzero;"/>
                </g>
            </g>
        </g>
    </g>
    <defs>
        <radialGradient id="_Radial1" cx="0" cy="0" r="1" gradientUnits="userSpaceOnUse" gradientTransform="matrix(13.5875,0,0,13.5875,0,0)"><stop offset="0" style="stop-color:black;stop-opacity:0.3"/><stop offset="1" style="stop-color:black;stop-opacity:0"/></radialGradient>
    </defs>
</svg>
